# xmcd
#
# Track frame offsets:
#	150
#	19615
#	42205
#	55275
#	77785
#	94532
#	111575
#	131860
#	166835
#	186715
#	208120
#	234690
#	259972
#
# Disc length: 3728 seconds
#
# Revision: 1
# Processed by: cddbd v1.5.2PL0 Copyright (c) Steve Scherf et al.
# Submitted via: audiograbber 1.83.01
#
DISCID=bd0e8e0d
DTITLE=Various Artist - Wonderful Dixieland
DYEAR=1996
DGENRE=Blues
TTITLE0=Rod Mason - Blues my naughty sweetie gives to me
TTITLE1=The Alan Elsdon Band - Panama rag
TTITLE2=Humphrey Lyttelton - Oh babe, maybe someday
TTITLE3=Alex Welsh - Doggin' around
TTITLE4=Five A Slide - Jubilee
TTITLE5=Monty Sunshine - St. Phillip street breakdown
TTITLE6=Roy Williams/John Barnes - Siley pud
TTITLE7=Ottilie Patterson/Chris Barber - Stumblin' block
TTITLE8=Digby Fairweather - Jeepers creepers
TTITLE9=Humphrey Lyttelton - Movin' and groovin
TTITLE10=Alex Welsh - Chinatown my chinatown
TTITLE11=Chris Barber - Royal garden blues
TTITLE12=Terry Lightfoot - Drum boogie
EXTD=
EXTT0=
EXTT1=
EXTT2=
EXTT3=
EXTT4=
EXTT5=
EXTT6=
EXTT7=
EXTT8=
EXTT9=
EXTT10=
EXTT11=
EXTT12=
PLAYORDER=
